# xmcd
#
# Track frame offsets: 
#        150
#        15503
#        28430
#        39455
#        51571
#        64611
#        77333
#        88614
#        103617
#        118701
#        132453
#        144945
#        162728
#        176388
#        184974
#        199439
#        212376
#        222769
#        237173
#        253067
#        266088
#        276116
#        288207
#        300244
#        313941
#
# Disc length: 4353 seconds
#
# Revision: 1
# Processed by: cddbd v1.5.2PL0 Copyright (c) Steve Scherf et al.
# Submitted via: ExactAudioCopyFreeDBPlugin 1.0
#
DISCID=7010ff19
DTITLE=Various Artist - Dave Godin's Deep Soul Treasures:  Taken from
DTITLE=the Vaults
DYEAR=2004
DGENRE=Soul
TTITLE0=The Knight Brothers - Temptation 'Bout to Get Me
TTITLE1=Eddie and Ernie - I Believe She Will
TTITLE2=Matilda Jones - Wrong Too Long
TTITLE3=Bobby "Blue" Bland - I Pity the Fool
TTITLE4=Dave Edwards - I Need You
TTITLE5=Ruby Andrews - Just Loving You
TTITLE6=Clarence Carter - Slip Away
TTITLE7=Black Velvet - Is It Me You Really Love
TTITLE8=Paul Kelly and the Stormwater Boys - The Day After Forever
TTITLE9=Gladys Knight and The Pips - Giving Up
TTITLE10=Arthur Conley - I'm a Lonely Stranger
TTITLE11=Jackie Lee - I Love You
TTITLE12=The Miracles - The Tracks of My Tears
TTITLE13=Roosevelt Matthews - You Got Me Diggin' You
TTITLE14=Doris Duke - I Don't Care Anymore
TTITLE15=Lawrence and Jaibi - You Make Me Feel Good
TTITLE16=Barbara Brown - Can't Find No Happiness
TTITLE17=Garnet Mimms - My Baby
TTITLE18=The Webs - It's So Hard to Break a Habit
TTITLE19=Irma Thomas - Time is on My Side
TTITLE20=Tony Owens - This Heart Can't Take No More
TTITLE21=Jaibi - It Was Like a Nightmare
TTITLE22=Roy Hamilton - The Dark End of the Street
TTITLE23=Jimmy Robins - I Made it Over
TTITLE24=Bob and Earl - Don't Ever Leave Me
EXTD=
EXTT0=
EXTT1=
EXTT2=
EXTT3=
EXTT4=
EXTT5=
EXTT6=
EXTT7=
EXTT8=
EXTT9=
EXTT10=
EXTT11=
EXTT12=
EXTT13=
EXTT14=
EXTT15=
EXTT16=
EXTT17=
EXTT18=
EXTT19=
EXTT20=
EXTT21=
EXTT22=
EXTT23=
EXTT24=
PLAYORDER=
